solid 
 facet normal  9.990212e-01  4.423335e-02  0.000000e+00
   outer loop
     vertex  1.593739e-01  1.414082e-02  1.650000e-01
     vertex  1.600000e-01 -3.918870e-17  1.650000e-01
     vertex  1.600000e-01 -3.918870e-17 -5.000000e-03
   endloop
 endfacet
 facet normal  9.990212e-01  4.423335e-02  0.000000e+00
   outer loop
     vertex  1.593739e-01  1.414082e-02  1.650000e-01
     vertex  1.600000e-01 -3.918870e-17 -5.000000e-03
     vertex  1.593739e-01  1.414082e-02 -5.000000e-03
   endloop
 endfacet
 facet normal  9.912025e-01  1.323539e-01  0.000000e+00
   outer loop
     vertex  1.575005e-01  2.817096e-02  1.650000e-01
     vertex  1.593739e-01  1.414082e-02  1.650000e-01
     vertex  1.593739e-01  1.414082e-02 -5.000000e-03
   endloop
 endfacet
 facet normal  9.912025e-01  1.323539e-01  0.000000e+00
   outer loop
     vertex  1.575005e-01  2.817096e-02  1.650000e-01
     vertex  1.593739e-01  1.414082e-02 -5.000000e-03
     vertex  1.575005e-01  2.817096e-02 -5.000000e-03
   endloop
 endfacet
 facet normal  9.756263e-01  2.194385e-01  0.000000e+00
   outer loop
     vertex  1.543944e-01  4.198063e-02  1.650000e-01
     vertex  1.575005e-01  2.817096e-02  1.650000e-01
     vertex  1.575005e-01  2.817096e-02 -5.000000e-03
   endloop
 endfacet
 facet normal  9.756263e-01  2.194385e-01  0.000000e+00
   outer loop
     vertex  1.543944e-01  4.198063e-02  1.650000e-01
     vertex  1.575005e-01  2.817096e-02 -5.000000e-03
     vertex  1.543944e-01  4.198063e-02 -5.000000e-03
   endloop
 endfacet
 facet normal  9.524145e-01  3.048058e-01  0.000000e+00
   outer loop
     vertex  1.500800e-01  5.546175e-02  1.650000e-01
     vertex  1.543944e-01  4.198063e-02  1.650000e-01
     vertex  1.543944e-01  4.198063e-02 -5.000000e-03
   endloop
 endfacet
 facet normal  9.524145e-01  3.048058e-01  0.000000e+00
   outer loop
     vertex  1.500800e-01  5.546175e-02  1.650000e-01
     vertex  1.543944e-01  4.198063e-02 -5.000000e-03
     vertex  1.500800e-01  5.546175e-02 -5.000000e-03
   endloop
 endfacet
 facet normal  9.217488e-01  3.877875e-01  0.000000e+00
   outer loop
     vertex  1.445910e-01  6.850880e-02  1.650000e-01
     vertex  1.500800e-01  5.546175e-02  1.650000e-01
     vertex  1.500800e-01  5.546175e-02 -5.000000e-03
   endloop
 endfacet
 facet normal  9.217488e-01  3.877875e-01  0.000000e+00
   outer loop
     vertex  1.445910e-01  6.850880e-02  1.650000e-01
     vertex  1.500800e-01  5.546175e-02 -5.000000e-03
     vertex  1.445910e-01  6.850880e-02 -5.000000e-03
   endloop
 endfacet
 facet normal  8.838691e-01  4.677343e-01  0.000000e+00
   outer loop
     vertex  1.379703e-01  8.101967e-02  1.650000e-01
     vertex  1.445910e-01  6.850880e-02  1.650000e-01
     vertex  1.445910e-01  6.850880e-02 -5.000000e-03
   endloop
 endfacet
 facet normal  8.838691e-01  4.677343e-01  0.000000e+00
   outer loop
     vertex  1.379703e-01  8.101967e-02  1.650000e-01
     vertex  1.445910e-01  6.850880e-02 -5.000000e-03
     vertex  1.379703e-01  8.101967e-02 -5.000000e-03
   endloop
 endfacet
 facet normal  8.390720e-01  5.440204e-01  0.000000e+00
   outer loop
     vertex  1.302699e-01  9.289646e-02  1.650000e-01
     vertex  1.379703e-01  8.101967e-02  1.650000e-01
     vertex  1.379703e-01  8.101967e-02 -5.000000e-03
   endloop
 endfacet
 facet normal  8.390720e-01  5.440204e-01  0.000000e+00
   outer loop
     vertex  1.302699e-01  9.289646e-02  1.650000e-01
     vertex  1.379703e-01  8.101967e-02 -5.000000e-03
     vertex  1.302699e-01  9.289646e-02 -5.000000e-03
   endloop
 endfacet
 facet normal  7.877080e-01  6.160488e-01  0.000000e+00
   outer loop
     vertex  1.215499e-01  1.040462e-01  1.650000e-01
     vertex  1.302699e-01  9.289646e-02 -5.000000e-03
     vertex  1.215499e-01  1.040462e-01 -5.000000e-03
   endloop
 endfacet
 facet normal  7.877080e-01  6.160488e-01  0.000000e+00
   outer loop
     vertex  1.215499e-01  1.040462e-01  1.650000e-01
     vertex  1.302699e-01  9.289646e-02  1.650000e-01
     vertex  1.302699e-01  9.289646e-02 -5.000000e-03
   endloop
 endfacet
 facet normal  7.301791e-01  6.832558e-01  0.000000e+00
   outer loop
     vertex  1.118787e-01  1.143817e-01  1.650000e-01
     vertex  1.215499e-01  1.040462e-01 -5.000000e-03
     vertex  1.118787e-01  1.143817e-01 -5.000000e-03
   endloop
 endfacet
 facet normal  7.301791e-01  6.832558e-01  0.000000e+00
   outer loop
     vertex  1.118787e-01  1.143817e-01  1.650000e-01
     vertex  1.215499e-01  1.040462e-01  1.650000e-01
     vertex  1.215499e-01  1.040462e-01 -5.000000e-03
   endloop
 endfacet
 facet normal  6.669355e-01  7.451154e-01  0.000000e+00
   outer loop
     vertex  1.013318e-01  1.238219e-01  1.650000e-01
     vertex  1.118787e-01  1.143817e-01 -5.000000e-03
     vertex  1.013318e-01  1.238219e-01 -5.000000e-03
   endloop
 endfacet
 facet normal  6.669355e-01  7.451154e-01  0.000000e+00
   outer loop
     vertex  1.013318e-01  1.238219e-01  1.650000e-01
     vertex  1.118787e-01  1.143817e-01  1.650000e-01
     vertex  1.118787e-01  1.143817e-01 -5.000000e-03
   endloop
 endfacet
 facet normal  5.984723e-01  8.011435e-01  0.000000e+00
   outer loop
     vertex  8.999189e-02  1.322931e-01  1.650000e-01
     vertex  1.013318e-01  1.238219e-01 -5.000000e-03
     vertex  8.999189e-02  1.322931e-01 -5.000000e-03
   endloop
 endfacet
 facet normal  5.984723e-01  8.011435e-01  0.000000e+00
   outer loop
     vertex  8.999189e-02  1.322931e-01  1.650000e-01
     vertex  1.013318e-01  1.238219e-01  1.650000e-01
     vertex  1.013318e-01  1.238219e-01 -5.000000e-03
   endloop
 endfacet
 facet normal  5.253252e-01  8.509015e-01  0.000000e+00
   outer loop
     vertex  7.794766e-02  1.397289e-01  1.650000e-01
     vertex  8.999189e-02  1.322931e-01 -5.000000e-03
     vertex  7.794766e-02  1.397289e-01 -5.000000e-03
   endloop
 endfacet
 facet normal  5.253252e-01  8.509015e-01  0.000000e+00
   outer loop
     vertex  7.794766e-02  1.397289e-01  1.650000e-01
     vertex  8.999189e-02  1.322931e-01  1.650000e-01
     vertex  8.999189e-02  1.322931e-01 -5.000000e-03
   endloop
 endfacet
 facet normal  4.480668e-01  8.940001e-01  0.000000e+00
   outer loop
     vertex  6.529338e-02  1.460711e-01  1.650000e-01
     vertex  7.794766e-02  1.397289e-01 -5.000000e-03
     vertex  6.529338e-02  1.460711e-01 -5.000000e-03
   endloop
 endfacet
 facet normal  4.480668e-01  8.940001e-01  0.000000e+00
   outer loop
     vertex  6.529338e-02  1.460711e-01  1.650000e-01
     vertex  7.794766e-02  1.397289e-01  1.650000e-01
     vertex  7.794766e-02  1.397289e-01 -5.000000e-03
   endloop
 endfacet
 facet normal  3.673016e-01  9.301019e-01  0.000000e+00
   outer loop
     vertex  5.212809e-02  1.512702e-01  1.650000e-01
     vertex  6.529338e-02  1.460711e-01  1.650000e-01
     vertex  6.529338e-02  1.460711e-01 -5.000000e-03
   endloop
 endfacet
 facet normal  3.673016e-01  9.301019e-01  0.000000e+00
   outer loop
     vertex  5.212809e-02  1.512702e-01  1.650000e-01
     vertex  6.529338e-02  1.460711e-01 -5.000000e-03
     vertex  5.212809e-02  1.512702e-01 -5.000000e-03
   endloop
 endfacet
 facet normal  2.836618e-01  9.589244e-01  0.000000e+00
   outer loop
     vertex  3.855483e-02  1.552853e-01  1.650000e-01
     vertex  5.212809e-02  1.512702e-01  1.650000e-01
     vertex  5.212809e-02  1.512702e-01 -5.000000e-03
   endloop
 endfacet
 facet normal  2.836618e-01  9.589244e-01  0.000000e+00
   outer loop
     vertex  3.855483e-02  1.552853e-01  1.650000e-01
     vertex  5.212809e-02  1.512702e-01 -5.000000e-03
     vertex  3.855483e-02  1.552853e-01 -5.000000e-03
   endloop
 endfacet
 facet normal  1.978019e-01  9.802420e-01  0.000000e+00
   outer loop
     vertex  2.467983e-02  1.580851e-01  1.650000e-01
     vertex  3.855483e-02  1.552853e-01  1.650000e-01
     vertex  3.855483e-02  1.552853e-01 -5.000000e-03
   endloop
 endfacet
 facet normal  1.978019e-01  9.802420e-01  0.000000e+00
   outer loop
     vertex  2.467983e-02  1.580851e-01  1.650000e-01
     vertex  3.855483e-02  1.552853e-01 -5.000000e-03
     vertex  2.467983e-02  1.580851e-01 -5.000000e-03
   endloop
 endfacet
 facet normal  1.103940e-01  9.938879e-01  0.000000e+00
   outer loop
     vertex  1.061167e-02  1.596477e-01  1.650000e-01
     vertex  2.467983e-02  1.580851e-01  1.650000e-01
     vertex  2.467983e-02  1.580851e-01 -5.000000e-03
   endloop
 endfacet
 facet normal  1.103940e-01  9.938879e-01  0.000000e+00
   outer loop
     vertex  1.061167e-02  1.596477e-01  1.650000e-01
     vertex  2.467983e-02  1.580851e-01 -5.000000e-03
     vertex  1.061167e-02  1.596477e-01 -5.000000e-03
   endloop
 endfacet
 facet normal  2.212209e-02  9.997553e-01  0.000000e+00
   outer loop
     vertex -3.539534e-03  1.599608e-01  1.650000e-01
     vertex  1.061167e-02  1.596477e-01  1.650000e-01
     vertex  1.061167e-02  1.596477e-01 -5.000000e-03
   endloop
 endfacet
 facet normal  2.212209e-02  9.997553e-01  0.000000e+00
   outer loop
     vertex -3.539534e-03  1.599608e-01  1.650000e-01
     vertex  1.061167e-02  1.596477e-01 -5.000000e-03
     vertex -3.539534e-03  1.599608e-01 -5.000000e-03
   endloop
 endfacet
 facet normal -6.632296e-02  9.977982e-01  0.000000e+00
   outer loop
     vertex -1.766304e-02  1.590221e-01  1.650000e-01
     vertex -3.539534e-03  1.599608e-01  1.650000e-01
     vertex -3.539534e-03  1.599608e-01 -5.000000e-03
   endloop
 endfacet
 facet normal -6.632296e-02  9.977982e-01  0.000000e+00
   outer loop
     vertex -1.766304e-02  1.590221e-01  1.650000e-01
     vertex -3.539534e-03  1.599608e-01 -5.000000e-03
     vertex -1.766304e-02  1.590221e-01 -5.000000e-03
   endloop
 endfacet
 facet normal -1.542489e-01  9.880320e-01  0.000000e+00
   outer loop
     vertex -3.164831e-02  1.568387e-01  1.650000e-01
     vertex -1.766304e-02  1.590221e-01  1.650000e-01
     vertex -1.766304e-02  1.590221e-01 -5.000000e-03
   endloop
 endfacet
 facet normal -1.542489e-01  9.880320e-01  0.000000e+00
   outer loop
     vertex -3.164831e-02  1.568387e-01  1.650000e-01
     vertex -1.766304e-02  1.590221e-01 -5.000000e-03
     vertex -3.164831e-02  1.568387e-01 -5.000000e-03
   endloop
 endfacet
 facet normal -2.409677e-01  9.705331e-01  0.000000e+00
   outer loop
     vertex -4.538588e-02  1.534279e-01  1.650000e-01
     vertex -3.164831e-02  1.568387e-01  1.650000e-01
     vertex -3.164831e-02  1.568387e-01 -5.000000e-03
   endloop
 endfacet
 facet normal -2.409677e-01  9.705331e-01  0.000000e+00
   outer loop
     vertex -4.538588e-02  1.534279e-01  1.650000e-01
     vertex -3.164831e-02  1.568387e-01 -5.000000e-03
     vertex -4.538588e-02  1.534279e-01 -5.000000e-03
   endloop
 endfacet
 facet normal -3.258006e-01  9.454385e-01  0.000000e+00
   outer loop
     vertex -5.876826e-02  1.488163e-01  1.650000e-01
     vertex -4.538588e-02  1.534279e-01  1.650000e-01
     vertex -4.538588e-02  1.534279e-01 -5.000000e-03
   endloop
 endfacet
 facet normal -3.258006e-01  9.454385e-01  0.000000e+00
   outer loop
     vertex -5.876826e-02  1.488163e-01  1.650000e-01
     vertex -4.538588e-02  1.534279e-01 -5.000000e-03
     vertex -5.876826e-02  1.488163e-01 -5.000000e-03
   endloop
 endfacet
 facet normal -4.080836e-01  9.129446e-01  0.000000e+00
   outer loop
     vertex -7.169069e-02  1.430400e-01  1.650000e-01
     vertex -5.876826e-02  1.488163e-01  1.650000e-01
     vertex -5.876826e-02  1.488163e-01 -5.000000e-03
   endloop
 endfacet
 facet normal -4.080836e-01  9.129446e-01  0.000000e+00
   outer loop
     vertex -7.169069e-02  1.430400e-01  1.650000e-01
     vertex -5.876826e-02  1.488163e-01 -5.000000e-03
     vertex -7.169069e-02  1.430400e-01 -5.000000e-03
   endloop
 endfacet
 facet normal -4.871728e-01  8.733056e-01  0.000000e+00
   outer loop
     vertex -8.405204e-02  1.361442e-01  1.650000e-01
     vertex -7.169069e-02  1.430400e-01  1.650000e-01
     vertex -7.169069e-02  1.430400e-01 -5.000000e-03
   endloop
 endfacet
 facet normal -4.871728e-01  8.733056e-01  0.000000e+00
   outer loop
     vertex -8.405204e-02  1.361442e-01  1.650000e-01
     vertex -7.169069e-02  1.430400e-01 -5.000000e-03
     vertex -8.405204e-02  1.361442e-01 -5.000000e-03
   endloop
 endfacet
 facet normal -5.624493e-01  8.268318e-01  0.000000e+00
   outer loop
     vertex -9.575557e-02  1.281830e-01  1.650000e-01
     vertex -8.405204e-02  1.361442e-01  1.650000e-01
     vertex -8.405204e-02  1.361442e-01 -5.000000e-03
   endloop
 endfacet
 facet normal -5.624493e-01  8.268318e-01  0.000000e+00
   outer loop
     vertex -9.575557e-02  1.281830e-01  1.650000e-01
     vertex -8.405204e-02  1.361442e-01 -5.000000e-03
     vertex -9.575557e-02  1.281830e-01 -5.000000e-03
   endloop
 endfacet
 facet normal -6.333238e-01  7.738869e-01  0.000000e+00
   outer loop
     vertex -1.067097e-01  1.192185e-01  1.650000e-01
     vertex -9.575557e-02  1.281830e-01  1.650000e-01
     vertex -9.575557e-02  1.281830e-01 -5.000000e-03
   endloop
 endfacet
 facet normal -6.333238e-01  7.738869e-01  0.000000e+00
   outer loop
     vertex -1.067097e-01  1.192185e-01  1.650000e-01
     vertex -9.575557e-02  1.281830e-01 -5.000000e-03
     vertex -1.067097e-01  1.192185e-01 -5.000000e-03
   endloop
 endfacet
 facet normal -6.992417e-01  7.148853e-01  0.000000e+00
   outer loop
     vertex -1.168287e-01  1.093209e-01  1.650000e-01
     vertex -1.067097e-01  1.192185e-01  1.650000e-01
     vertex -1.067097e-01  1.192185e-01 -5.000000e-03
   endloop
 endfacet
 facet normal -6.992417e-01  7.148853e-01  0.000000e+00
   outer loop
     vertex -1.168287e-01  1.093209e-01  1.650000e-01
     vertex -1.067097e-01  1.192185e-01 -5.000000e-03
     vertex -1.168287e-01  1.093209e-01 -5.000000e-03
   endloop
 endfacet
 facet normal -7.596871e-01  6.502888e-01  0.000000e+00
   outer loop
     vertex -1.260333e-01  9.856781e-02  1.650000e-01
     vertex -1.168287e-01  1.093209e-01  1.650000e-01
     vertex -1.168287e-01  1.093209e-01 -5.000000e-03
   endloop
 endfacet
 facet normal -7.596871e-01  6.502888e-01  0.000000e+00
   outer loop
     vertex -1.260333e-01  9.856781e-02  1.650000e-01
     vertex -1.168287e-01  1.093209e-01 -5.000000e-03
     vertex -1.260333e-01  9.856781e-02 -5.000000e-03
   endloop
 endfacet
 facet normal -8.141869e-01  5.806029e-01  0.000000e+00
   outer loop
     vertex -1.342515e-01  8.704326e-02  1.650000e-01
     vertex -1.260333e-01  9.856781e-02 -5.000000e-03
     vertex -1.342515e-01  8.704326e-02 -5.000000e-03
   endloop
 endfacet
 facet normal -8.141869e-01  5.806029e-01  0.000000e+00
   outer loop
     vertex -1.342515e-01  8.704326e-02  1.650000e-01
     vertex -1.260333e-01  9.856781e-02  1.650000e-01
     vertex -1.260333e-01  9.856781e-02 -5.000000e-03
   endloop
 endfacet
 facet normal -8.623146e-01  5.063730e-01  0.000000e+00
   outer loop
     vertex -1.414191e-01  7.483748e-02  1.650000e-01
     vertex -1.342515e-01  8.704326e-02 -5.000000e-03
     vertex -1.414191e-01  7.483748e-02 -5.000000e-03
   endloop
 endfacet
 facet normal -8.623146e-01  5.063730e-01  0.000000e+00
   outer loop
     vertex -1.414191e-01  7.483748e-02  1.650000e-01
     vertex -1.342515e-01  8.704326e-02  1.650000e-01
     vertex -1.342515e-01  8.704326e-02 -5.000000e-03
   endloop
 endfacet
 facet normal -9.036935e-01  4.281800e-01  0.000000e+00
   outer loop
     vertex -1.474798e-01  6.204600e-02  1.650000e-01
     vertex -1.414191e-01  7.483748e-02 -5.000000e-03
     vertex -1.474798e-01  6.204600e-02 -5.000000e-03
   endloop
 endfacet
 facet normal -9.036935e-01  4.281800e-01  0.000000e+00
   outer loop
     vertex -1.474798e-01  6.204600e-02  1.650000e-01
     vertex -1.414191e-01  7.483748e-02  1.650000e-01
     vertex -1.414191e-01  7.483748e-02 -5.000000e-03
   endloop
 endfacet
 facet normal -9.379998e-01  3.466359e-01  0.000000e+00
   outer loop
     vertex -1.523863e-01  4.876892e-02  1.650000e-01
     vertex -1.474798e-01  6.204600e-02 -5.000000e-03
     vertex -1.523863e-01  4.876892e-02 -5.000000e-03
   endloop
 endfacet
 facet normal -9.379998e-01  3.466359e-01  0.000000e+00
   outer loop
     vertex -1.523863e-01  4.876892e-02  1.650000e-01
     vertex -1.474798e-01  6.204600e-02  1.650000e-01
     vertex -1.474798e-01  6.204600e-02 -5.000000e-03
   endloop
 endfacet
 facet normal -9.649649e-01  2.623790e-01  0.000000e+00
   outer loop
     vertex -1.561002e-01  3.511016e-02  1.650000e-01
     vertex -1.523863e-01  4.876892e-02 -5.000000e-03
     vertex -1.561002e-01  3.511016e-02 -5.000000e-03
   endloop
 endfacet
 facet normal -9.649649e-01  2.623790e-01  0.000000e+00
   outer loop
     vertex -1.561002e-01  3.511016e-02  1.650000e-01
     vertex -1.523863e-01  4.876892e-02  1.650000e-01
     vertex -1.523863e-01  4.876892e-02 -5.000000e-03
   endloop
 endfacet
 facet normal -9.843779e-01  1.760685e-01  0.000000e+00
   outer loop
     vertex -1.585924e-01  2.117662e-02  1.650000e-01
     vertex -1.561002e-01  3.511016e-02 -5.000000e-03
     vertex -1.585924e-01  2.117662e-02 -5.000000e-03
   endloop
 endfacet
 facet normal -9.843779e-01  1.760685e-01  0.000000e+00
   outer loop
     vertex -1.585924e-01  2.117662e-02  1.650000e-01
     vertex -1.561002e-01  3.511016e-02  1.650000e-01
     vertex -1.561002e-01  3.511016e-02 -5.000000e-03
   endloop
 endfacet
 facet normal -9.960868e-01  8.838010e-02  0.000000e+00
   outer loop
     vertex -1.598434e-01  7.077335e-03  1.650000e-01
     vertex -1.585924e-01  2.117662e-02 -5.000000e-03
     vertex -1.598434e-01  7.077335e-03 -5.000000e-03
   endloop
 endfacet
 facet normal -9.960868e-01  8.838010e-02  0.000000e+00
   outer loop
     vertex -1.598434e-01  7.077335e-03  1.650000e-01
     vertex -1.585924e-01  2.117662e-02  1.650000e-01
     vertex -1.585924e-01  2.117662e-02 -5.000000e-03
   endloop
 endfacet
 facet normal -1.000000e+00 -1.960877e-15 -0.000000e+00
   outer loop
     vertex -1.598434e-01 -7.077335e-03  1.650000e-01
     vertex -1.598434e-01  7.077335e-03 -5.000000e-03
     vertex -1.598434e-01 -7.077335e-03 -5.000000e-03
   endloop
 endfacet
 facet normal -1.000000e+00 -1.960877e-15  0.000000e+00
   outer loop
     vertex -1.598434e-01 -7.077335e-03  1.650000e-01
     vertex -1.598434e-01  7.077335e-03  1.650000e-01
     vertex -1.598434e-01  7.077335e-03 -5.000000e-03
   endloop
 endfacet
 facet normal -9.960868e-01 -8.838010e-02 -0.000000e+00
   outer loop
     vertex -1.585924e-01 -2.117662e-02  1.650000e-01
     vertex -1.598434e-01 -7.077335e-03 -5.000000e-03
     vertex -1.585924e-01 -2.117662e-02 -5.000000e-03
   endloop
 endfacet
 facet normal -9.960868e-01 -8.838010e-02  0.000000e+00
   outer loop
     vertex -1.585924e-01 -2.117662e-02  1.650000e-01
     vertex -1.598434e-01 -7.077335e-03  1.650000e-01
     vertex -1.598434e-01 -7.077335e-03 -5.000000e-03
   endloop
 endfacet
 facet normal -9.843779e-01 -1.760685e-01 -0.000000e+00
   outer loop
     vertex -1.561002e-01 -3.511016e-02  1.650000e-01
     vertex -1.585924e-01 -2.117662e-02 -5.000000e-03
     vertex -1.561002e-01 -3.511016e-02 -5.000000e-03
   endloop
 endfacet
 facet normal -9.843779e-01 -1.760685e-01  0.000000e+00
   outer loop
     vertex -1.561002e-01 -3.511016e-02  1.650000e-01
     vertex -1.585924e-01 -2.117662e-02  1.650000e-01
     vertex -1.585924e-01 -2.117662e-02 -5.000000e-03
   endloop
 endfacet
 facet normal -9.649649e-01 -2.623790e-01  0.000000e+00
   outer loop
     vertex -1.523863e-01 -4.876892e-02  1.650000e-01
     vertex -1.561002e-01 -3.511016e-02  1.650000e-01
     vertex -1.561002e-01 -3.511016e-02 -5.000000e-03
   endloop
 endfacet
 facet normal -9.649649e-01 -2.623790e-01 -0.000000e+00
   outer loop
     vertex -1.523863e-01 -4.876892e-02  1.650000e-01
     vertex -1.561002e-01 -3.511016e-02 -5.000000e-03
     vertex -1.523863e-01 -4.876892e-02 -5.000000e-03
   endloop
 endfacet
 facet normal -9.379998e-01 -3.466359e-01  0.000000e+00
   outer loop
     vertex -1.474798e-01 -6.204600e-02  1.650000e-01
     vertex -1.523863e-01 -4.876892e-02  1.650000e-01
     vertex -1.523863e-01 -4.876892e-02 -5.000000e-03
   endloop
 endfacet
 facet normal -9.379998e-01 -3.466359e-01 -0.000000e+00
   outer loop
     vertex -1.474798e-01 -6.204600e-02  1.650000e-01
     vertex -1.523863e-01 -4.876892e-02 -5.000000e-03
     vertex -1.474798e-01 -6.204600e-02 -5.000000e-03
   endloop
 endfacet
 facet normal -9.036935e-01 -4.281800e-01  0.000000e+00
   outer loop
     vertex -1.414191e-01 -7.483748e-02  1.650000e-01
     vertex -1.474798e-01 -6.204600e-02  1.650000e-01
     vertex -1.474798e-01 -6.204600e-02 -5.000000e-03
   endloop
 endfacet
 facet normal -9.036935e-01 -4.281800e-01 -0.000000e+00
   outer loop
     vertex -1.414191e-01 -7.483748e-02  1.650000e-01
     vertex -1.474798e-01 -6.204600e-02 -5.000000e-03
     vertex -1.414191e-01 -7.483748e-02 -5.000000e-03
   endloop
 endfacet
 facet normal -8.623146e-01 -5.063730e-01 -0.000000e+00
   outer loop
     vertex -1.342515e-01 -8.704326e-02  1.650000e-01
     vertex -1.414191e-01 -7.483748e-02 -5.000000e-03
     vertex -1.342515e-01 -8.704326e-02 -5.000000e-03
   endloop
 endfacet
 facet normal -8.623146e-01 -5.063730e-01  0.000000e+00
   outer loop
     vertex -1.342515e-01 -8.704326e-02  1.650000e-01
     vertex -1.414191e-01 -7.483748e-02  1.650000e-01
     vertex -1.414191e-01 -7.483748e-02 -5.000000e-03
   endloop
 endfacet
 facet normal -8.141869e-01 -5.806029e-01 -0.000000e+00
   outer loop
     vertex -1.260333e-01 -9.856781e-02  1.650000e-01
     vertex -1.342515e-01 -8.704326e-02 -5.000000e-03
     vertex -1.260333e-01 -9.856781e-02 -5.000000e-03
   endloop
 endfacet
 facet normal -8.141869e-01 -5.806029e-01  0.000000e+00
   outer loop
     vertex -1.260333e-01 -9.856781e-02  1.650000e-01
     vertex -1.342515e-01 -8.704326e-02  1.650000e-01
     vertex -1.342515e-01 -8.704326e-02 -5.000000e-03
   endloop
 endfacet
 facet normal -7.596871e-01 -6.502888e-01 -0.000000e+00
   outer loop
     vertex -1.168287e-01 -1.093209e-01  1.650000e-01
     vertex -1.260333e-01 -9.856781e-02 -5.000000e-03
     vertex -1.168287e-01 -1.093209e-01 -5.000000e-03
   endloop
 endfacet
 facet normal -7.596871e-01 -6.502888e-01  0.000000e+00
   outer loop
     vertex -1.168287e-01 -1.093209e-01  1.650000e-01
     vertex -1.260333e-01 -9.856781e-02  1.650000e-01
     vertex -1.260333e-01 -9.856781e-02 -5.000000e-03
   endloop
 endfacet
 facet normal -6.992417e-01 -7.148853e-01 -0.000000e+00
   outer loop
     vertex -1.067097e-01 -1.192185e-01  1.650000e-01
     vertex -1.168287e-01 -1.093209e-01 -5.000000e-03
     vertex -1.067097e-01 -1.192185e-01 -5.000000e-03
   endloop
 endfacet
 facet normal -6.992417e-01 -7.148853e-01  0.000000e+00
   outer loop
     vertex -1.067097e-01 -1.192185e-01  1.650000e-01
     vertex -1.168287e-01 -1.093209e-01  1.650000e-01
     vertex -1.168287e-01 -1.093209e-01 -5.000000e-03
   endloop
 endfacet
 facet normal -6.333238e-01 -7.738869e-01 -0.000000e+00
   outer loop
     vertex -9.575557e-02 -1.281830e-01  1.650000e-01
     vertex -1.067097e-01 -1.192185e-01 -5.000000e-03
     vertex -9.575557e-02 -1.281830e-01 -5.000000e-03
   endloop
 endfacet
 facet normal -6.333238e-01 -7.738869e-01  0.000000e+00
   outer loop
     vertex -9.575557e-02 -1.281830e-01  1.650000e-01
     vertex -1.067097e-01 -1.192185e-01  1.650000e-01
     vertex -1.067097e-01 -1.192185e-01 -5.000000e-03
   endloop
 endfacet
 facet normal -5.624493e-01 -8.268318e-01 -0.000000e+00
   outer loop
     vertex -8.405204e-02 -1.361442e-01  1.650000e-01
     vertex -9.575557e-02 -1.281830e-01 -5.000000e-03
     vertex -8.405204e-02 -1.361442e-01 -5.000000e-03
   endloop
 endfacet
 facet normal -5.624493e-01 -8.268318e-01  0.000000e+00
   outer loop
     vertex -8.405204e-02 -1.361442e-01  1.650000e-01
     vertex -9.575557e-02 -1.281830e-01  1.650000e-01
     vertex -9.575557e-02 -1.281830e-01 -5.000000e-03
   endloop
 endfacet
 facet normal -4.871728e-01 -8.733056e-01 -0.000000e+00
   outer loop
     vertex -7.169069e-02 -1.430400e-01  1.650000e-01
     vertex -8.405204e-02 -1.361442e-01 -5.000000e-03
     vertex -7.169069e-02 -1.430400e-01 -5.000000e-03
   endloop
 endfacet
 facet normal -4.871728e-01 -8.733056e-01  0.000000e+00
   outer loop
     vertex -7.169069e-02 -1.430400e-01  1.650000e-01
     vertex -8.405204e-02 -1.361442e-01  1.650000e-01
     vertex -8.405204e-02 -1.361442e-01 -5.000000e-03
   endloop
 endfacet
 facet normal -4.080836e-01 -9.129446e-01 -0.000000e+00
   outer loop
     vertex -5.876826e-02 -1.488163e-01  1.650000e-01
     vertex -7.169069e-02 -1.430400e-01 -5.000000e-03
     vertex -5.876826e-02 -1.488163e-01 -5.000000e-03
   endloop
 endfacet
 facet normal -4.080836e-01 -9.129446e-01  0.000000e+00
   outer loop
     vertex -5.876826e-02 -1.488163e-01  1.650000e-01
     vertex -7.169069e-02 -1.430400e-01  1.650000e-01
     vertex -7.169069e-02 -1.430400e-01 -5.000000e-03
   endloop
 endfacet
 facet normal -3.258006e-01 -9.454385e-01 -0.000000e+00
   outer loop
     vertex -4.538588e-02 -1.534279e-01  1.650000e-01
     vertex -5.876826e-02 -1.488163e-01 -5.000000e-03
     vertex -4.538588e-02 -1.534279e-01 -5.000000e-03
   endloop
 endfacet
 facet normal -3.258006e-01 -9.454385e-01  0.000000e+00
   outer loop
     vertex -4.538588e-02 -1.534279e-01  1.650000e-01
     vertex -5.876826e-02 -1.488163e-01  1.650000e-01
     vertex -5.876826e-02 -1.488163e-01 -5.000000e-03
   endloop
 endfacet
 facet normal -2.409677e-01 -9.705331e-01 -0.000000e+00
   outer loop
     vertex -3.164831e-02 -1.568387e-01  1.650000e-01
     vertex -4.538588e-02 -1.534279e-01 -5.000000e-03
     vertex -3.164831e-02 -1.568387e-01 -5.000000e-03
   endloop
 endfacet
 facet normal -2.409677e-01 -9.705331e-01  0.000000e+00
   outer loop
     vertex -3.164831e-02 -1.568387e-01  1.650000e-01
     vertex -4.538588e-02 -1.534279e-01  1.650000e-01
     vertex -4.538588e-02 -1.534279e-01 -5.000000e-03
   endloop
 endfacet
 facet normal -1.542489e-01 -9.880320e-01 -0.000000e+00
   outer loop
     vertex -1.766304e-02 -1.590221e-01  1.650000e-01
     vertex -3.164831e-02 -1.568387e-01 -5.000000e-03
     vertex -1.766304e-02 -1.590221e-01 -5.000000e-03
   endloop
 endfacet
 facet normal -1.542489e-01 -9.880320e-01  0.000000e+00
   outer loop
     vertex -1.766304e-02 -1.590221e-01  1.650000e-01
     vertex -3.164831e-02 -1.568387e-01  1.650000e-01
     vertex -3.164831e-02 -1.568387e-01 -5.000000e-03
   endloop
 endfacet
 facet normal -6.632296e-02 -9.977982e-01 -0.000000e+00
   outer loop
     vertex -3.539534e-03 -1.599608e-01  1.650000e-01
     vertex -1.766304e-02 -1.590221e-01 -5.000000e-03
     vertex -3.539534e-03 -1.599608e-01 -5.000000e-03
   endloop
 endfacet
 facet normal -6.632296e-02 -9.977982e-01  0.000000e+00
   outer loop
     vertex -3.539534e-03 -1.599608e-01  1.650000e-01
     vertex -1.766304e-02 -1.590221e-01  1.650000e-01
     vertex -1.766304e-02 -1.590221e-01 -5.000000e-03
   endloop
 endfacet
 facet normal  2.212209e-02 -9.997553e-01  0.000000e+00
   outer loop
     vertex  1.061167e-02 -1.596477e-01  1.650000e-01
     vertex -3.539534e-03 -1.599608e-01 -5.000000e-03
     vertex  1.061167e-02 -1.596477e-01 -5.000000e-03
   endloop
 endfacet
 facet normal  2.212209e-02 -9.997553e-01  0.000000e+00
   outer loop
     vertex  1.061167e-02 -1.596477e-01  1.650000e-01
     vertex -3.539534e-03 -1.599608e-01  1.650000e-01
     vertex -3.539534e-03 -1.599608e-01 -5.000000e-03
   endloop
 endfacet
 facet normal  1.103940e-01 -9.938879e-01  0.000000e+00
   outer loop
     vertex  2.467983e-02 -1.580851e-01  1.650000e-01
     vertex  1.061167e-02 -1.596477e-01 -5.000000e-03
     vertex  2.467983e-02 -1.580851e-01 -5.000000e-03
   endloop
 endfacet
 facet normal  1.103940e-01 -9.938879e-01  0.000000e+00
   outer loop
     vertex  2.467983e-02 -1.580851e-01  1.650000e-01
     vertex  1.061167e-02 -1.596477e-01  1.650000e-01
     vertex  1.061167e-02 -1.596477e-01 -5.000000e-03
   endloop
 endfacet
 facet normal  1.978019e-01 -9.802420e-01  0.000000e+00
   outer loop
     vertex  3.855483e-02 -1.552853e-01  1.650000e-01
     vertex  2.467983e-02 -1.580851e-01 -5.000000e-03
     vertex  3.855483e-02 -1.552853e-01 -5.000000e-03
   endloop
 endfacet
 facet normal  1.978019e-01 -9.802420e-01  0.000000e+00
   outer loop
     vertex  3.855483e-02 -1.552853e-01  1.650000e-01
     vertex  2.467983e-02 -1.580851e-01  1.650000e-01
     vertex  2.467983e-02 -1.580851e-01 -5.000000e-03
   endloop
 endfacet
 facet normal  2.836618e-01 -9.589244e-01  0.000000e+00
   outer loop
     vertex  5.212809e-02 -1.512702e-01  1.650000e-01
     vertex  3.855483e-02 -1.552853e-01 -5.000000e-03
     vertex  5.212809e-02 -1.512702e-01 -5.000000e-03
   endloop
 endfacet
 facet normal  2.836618e-01 -9.589244e-01  0.000000e+00
   outer loop
     vertex  5.212809e-02 -1.512702e-01  1.650000e-01
     vertex  3.855483e-02 -1.552853e-01  1.650000e-01
     vertex  3.855483e-02 -1.552853e-01 -5.000000e-03
   endloop
 endfacet
 facet normal  3.673016e-01 -9.301019e-01  0.000000e+00
   outer loop
     vertex  6.529338e-02 -1.460711e-01  1.650000e-01
     vertex  5.212809e-02 -1.512702e-01 -5.000000e-03
     vertex  6.529338e-02 -1.460711e-01 -5.000000e-03
   endloop
 endfacet
 facet normal  3.673016e-01 -9.301019e-01  0.000000e+00
   outer loop
     vertex  6.529338e-02 -1.460711e-01  1.650000e-01
     vertex  5.212809e-02 -1.512702e-01  1.650000e-01
     vertex  5.212809e-02 -1.512702e-01 -5.000000e-03
   endloop
 endfacet
 facet normal  4.480668e-01 -8.940001e-01  0.000000e+00
   outer loop
     vertex  7.794766e-02 -1.397289e-01  1.650000e-01
     vertex  6.529338e-02 -1.460711e-01 -5.000000e-03
     vertex  7.794766e-02 -1.397289e-01 -5.000000e-03
   endloop
 endfacet
 facet normal  4.480668e-01 -8.940001e-01  0.000000e+00
   outer loop
     vertex  7.794766e-02 -1.397289e-01  1.650000e-01
     vertex  6.529338e-02 -1.460711e-01  1.650000e-01
     vertex  6.529338e-02 -1.460711e-01 -5.000000e-03
   endloop
 endfacet
 facet normal  5.253252e-01 -8.509015e-01  0.000000e+00
   outer loop
     vertex  8.999189e-02 -1.322931e-01  1.650000e-01
     vertex  7.794766e-02 -1.397289e-01 -5.000000e-03
     vertex  8.999189e-02 -1.322931e-01 -5.000000e-03
   endloop
 endfacet
 facet normal  5.253252e-01 -8.509015e-01  0.000000e+00
   outer loop
     vertex  8.999189e-02 -1.322931e-01  1.650000e-01
     vertex  7.794766e-02 -1.397289e-01  1.650000e-01
     vertex  7.794766e-02 -1.397289e-01 -5.000000e-03
   endloop
 endfacet
 facet normal  5.984723e-01 -8.011435e-01  0.000000e+00
   outer loop
     vertex  1.013318e-01 -1.238219e-01  1.650000e-01
     vertex  8.999189e-02 -1.322931e-01 -5.000000e-03
     vertex  1.013318e-01 -1.238219e-01 -5.000000e-03
   endloop
 endfacet
 facet normal  5.984723e-01 -8.011435e-01  0.000000e+00
   outer loop
     vertex  1.013318e-01 -1.238219e-01  1.650000e-01
     vertex  8.999189e-02 -1.322931e-01  1.650000e-01
     vertex  8.999189e-02 -1.322931e-01 -5.000000e-03
   endloop
 endfacet
 facet normal  6.669355e-01 -7.451154e-01  0.000000e+00
   outer loop
     vertex  1.118787e-01 -1.143817e-01  1.650000e-01
     vertex  1.013318e-01 -1.238219e-01 -5.000000e-03
     vertex  1.118787e-01 -1.143817e-01 -5.000000e-03
   endloop
 endfacet
 facet normal  6.669355e-01 -7.451154e-01  0.000000e+00
   outer loop
     vertex  1.118787e-01 -1.143817e-01  1.650000e-01
     vertex  1.013318e-01 -1.238219e-01  1.650000e-01
     vertex  1.013318e-01 -1.238219e-01 -5.000000e-03
   endloop
 endfacet
 facet normal  7.301791e-01 -6.832558e-01  0.000000e+00
   outer loop
     vertex  1.215499e-01 -1.040462e-01  1.650000e-01
     vertex  1.118787e-01 -1.143817e-01 -5.000000e-03
     vertex  1.215499e-01 -1.040462e-01 -5.000000e-03
   endloop
 endfacet
 facet normal  7.301791e-01 -6.832558e-01  0.000000e+00
   outer loop
     vertex  1.215499e-01 -1.040462e-01  1.650000e-01
     vertex  1.118787e-01 -1.143817e-01  1.650000e-01
     vertex  1.118787e-01 -1.143817e-01 -5.000000e-03
   endloop
 endfacet
 facet normal  7.877080e-01 -6.160488e-01  0.000000e+00
   outer loop
     vertex  1.302699e-01 -9.289646e-02  1.650000e-01
     vertex  1.215499e-01 -1.040462e-01 -5.000000e-03
     vertex  1.302699e-01 -9.289646e-02 -5.000000e-03
   endloop
 endfacet
 facet normal  7.877080e-01 -6.160488e-01  0.000000e+00
   outer loop
     vertex  1.302699e-01 -9.289646e-02  1.650000e-01
     vertex  1.215499e-01 -1.040462e-01  1.650000e-01
     vertex  1.215499e-01 -1.040462e-01 -5.000000e-03
   endloop
 endfacet
 facet normal  8.390720e-01 -5.440204e-01  0.000000e+00
   outer loop
     vertex  1.379703e-01 -8.101967e-02  1.650000e-01
     vertex  1.302699e-01 -9.289646e-02  1.650000e-01
     vertex  1.302699e-01 -9.289646e-02 -5.000000e-03
   endloop
 endfacet
 facet normal  8.390720e-01 -5.440204e-01  0.000000e+00
   outer loop
     vertex  1.379703e-01 -8.101967e-02  1.650000e-01
     vertex  1.302699e-01 -9.289646e-02 -5.000000e-03
     vertex  1.379703e-01 -8.101967e-02 -5.000000e-03
   endloop
 endfacet
 facet normal  8.838691e-01 -4.677343e-01  0.000000e+00
   outer loop
     vertex  1.445910e-01 -6.850880e-02  1.650000e-01
     vertex  1.379703e-01 -8.101967e-02  1.650000e-01
     vertex  1.379703e-01 -8.101967e-02 -5.000000e-03
   endloop
 endfacet
 facet normal  8.838691e-01 -4.677343e-01  0.000000e+00
   outer loop
     vertex  1.445910e-01 -6.850880e-02  1.650000e-01
     vertex  1.379703e-01 -8.101967e-02 -5.000000e-03
     vertex  1.445910e-01 -6.850880e-02 -5.000000e-03
   endloop
 endfacet
 facet normal  9.217488e-01 -3.877875e-01  0.000000e+00
   outer loop
     vertex  1.500800e-01 -5.546175e-02  1.650000e-01
     vertex  1.445910e-01 -6.850880e-02  1.650000e-01
     vertex  1.445910e-01 -6.850880e-02 -5.000000e-03
   endloop
 endfacet
 facet normal  9.217488e-01 -3.877875e-01  0.000000e+00
   outer loop
     vertex  1.500800e-01 -5.546175e-02  1.650000e-01
     vertex  1.445910e-01 -6.850880e-02 -5.000000e-03
     vertex  1.500800e-01 -5.546175e-02 -5.000000e-03
   endloop
 endfacet
 facet normal  9.524145e-01 -3.048058e-01  0.000000e+00
   outer loop
     vertex  1.543944e-01 -4.198063e-02  1.650000e-01
     vertex  1.500800e-01 -5.546175e-02  1.650000e-01
     vertex  1.500800e-01 -5.546175e-02 -5.000000e-03
   endloop
 endfacet
 facet normal  9.524145e-01 -3.048058e-01  0.000000e+00
   outer loop
     vertex  1.543944e-01 -4.198063e-02  1.650000e-01
     vertex  1.500800e-01 -5.546175e-02 -5.000000e-03
     vertex  1.543944e-01 -4.198063e-02 -5.000000e-03
   endloop
 endfacet
 facet normal  9.756263e-01 -2.194385e-01  0.000000e+00
   outer loop
     vertex  1.575005e-01 -2.817096e-02  1.650000e-01
     vertex  1.543944e-01 -4.198063e-02  1.650000e-01
     vertex  1.543944e-01 -4.198063e-02 -5.000000e-03
   endloop
 endfacet
 facet normal  9.756263e-01 -2.194385e-01  0.000000e+00
   outer loop
     vertex  1.575005e-01 -2.817096e-02  1.650000e-01
     vertex  1.543944e-01 -4.198063e-02 -5.000000e-03
     vertex  1.575005e-01 -2.817096e-02 -5.000000e-03
   endloop
 endfacet
 facet normal  9.912025e-01 -1.323539e-01  0.000000e+00
   outer loop
     vertex  1.593739e-01 -1.414082e-02  1.650000e-01
     vertex  1.575005e-01 -2.817096e-02  1.650000e-01
     vertex  1.575005e-01 -2.817096e-02 -5.000000e-03
   endloop
 endfacet
 facet normal  9.912025e-01 -1.323539e-01  0.000000e+00
   outer loop
     vertex  1.593739e-01 -1.414082e-02  1.650000e-01
     vertex  1.575005e-01 -2.817096e-02 -5.000000e-03
     vertex  1.593739e-01 -1.414082e-02 -5.000000e-03
   endloop
 endfacet
 facet normal  9.990212e-01 -4.423335e-02  0.000000e+00
   outer loop
     vertex  1.600000e-01 -3.918870e-17  1.650000e-01
     vertex  1.593739e-01 -1.414082e-02  1.650000e-01
     vertex  1.593739e-01 -1.414082e-02 -5.000000e-03
   endloop
 endfacet
 facet normal  9.990212e-01 -4.423335e-02  0.000000e+00
   outer loop
     vertex  1.600000e-01 -3.918870e-17  1.650000e-01
     vertex  1.593739e-01 -1.414082e-02 -5.000000e-03
     vertex  1.600000e-01 -3.918870e-17 -5.000000e-03
   endloop
 endfacet
 facet normal  0.000000e+00  0.000000e+00  1.000000e+00
   outer loop
     vertex  1.118787e-01  1.143817e-01  1.650000e-01
     vertex  1.600000e-01 -3.918870e-17  1.650000e-01
     vertex  1.593739e-01  1.414082e-02  1.650000e-01
   endloop
 endfacet
 facet normal  0.000000e+00  0.000000e+00  1.000000e+00
   outer loop
     vertex  1.118787e-01  1.143817e-01  1.650000e-01
     vertex  1.593739e-01  1.414082e-02  1.650000e-01
     vertex  1.575005e-01  2.817096e-02  1.650000e-01
   endloop
 endfacet
 facet normal  0.000000e+00  0.000000e+00  1.000000e+00
   outer loop
     vertex  1.118787e-01  1.143817e-01  1.650000e-01
     vertex  1.575005e-01  2.817096e-02  1.650000e-01
     vertex  1.543944e-01  4.198063e-02  1.650000e-01
   endloop
 endfacet
 facet normal  0.000000e+00  0.000000e+00  1.000000e+00
   outer loop
     vertex  1.118787e-01  1.143817e-01  1.650000e-01
     vertex  1.543944e-01  4.198063e-02  1.650000e-01
     vertex  1.500800e-01  5.546175e-02  1.650000e-01
   endloop
 endfacet
 facet normal  0.000000e+00  0.000000e+00  1.000000e+00
   outer loop
     vertex  1.118787e-01  1.143817e-01  1.650000e-01
     vertex  1.500800e-01  5.546175e-02  1.650000e-01
     vertex  1.445910e-01  6.850880e-02  1.650000e-01
   endloop
 endfacet
 facet normal  0.000000e+00  0.000000e+00  1.000000e+00
   outer loop
     vertex  1.118787e-01  1.143817e-01  1.650000e-01
     vertex  1.445910e-01  6.850880e-02  1.650000e-01
     vertex  1.379703e-01  8.101967e-02  1.650000e-01
   endloop
 endfacet
 facet normal  0.000000e+00  0.000000e+00  1.000000e+00
   outer loop
     vertex  1.118787e-01  1.143817e-01  1.650000e-01
     vertex  1.379703e-01  8.101967e-02  1.650000e-01
     vertex  1.302699e-01  9.289646e-02  1.650000e-01
   endloop
 endfacet
 facet normal  0.000000e+00  0.000000e+00  1.000000e+00
   outer loop
     vertex  1.118787e-01  1.143817e-01  1.650000e-01
     vertex  1.302699e-01  9.289646e-02  1.650000e-01
     vertex  1.215499e-01  1.040462e-01  1.650000e-01
   endloop
 endfacet
 facet normal  0.000000e+00  0.000000e+00  1.000000e+00
   outer loop
     vertex  1.118787e-01  1.143817e-01  1.650000e-01
     vertex  1.013318e-01  1.238219e-01  1.650000e-01
     vertex  8.999189e-02  1.322931e-01  1.650000e-01
   endloop
 endfacet
 facet normal  0.000000e+00  0.000000e+00  1.000000e+00
   outer loop
     vertex  1.118787e-01  1.143817e-01  1.650000e-01
     vertex  8.999189e-02  1.322931e-01  1.650000e-01
     vertex  7.794766e-02  1.397289e-01  1.650000e-01
   endloop
 endfacet
 facet normal  0.000000e+00  0.000000e+00  1.000000e+00
   outer loop
     vertex  1.118787e-01  1.143817e-01  1.650000e-01
     vertex  7.794766e-02  1.397289e-01  1.650000e-01
     vertex  6.529338e-02  1.460711e-01  1.650000e-01
   endloop
 endfacet
 facet normal  0.000000e+00  0.000000e+00  1.000000e+00
   outer loop
     vertex  1.118787e-01  1.143817e-01  1.650000e-01
     vertex  6.529338e-02  1.460711e-01  1.650000e-01
     vertex  5.212809e-02  1.512702e-01  1.650000e-01
   endloop
 endfacet
 facet normal  0.000000e+00  0.000000e+00  1.000000e+00
   outer loop
     vertex  1.118787e-01  1.143817e-01  1.650000e-01
     vertex  5.212809e-02  1.512702e-01  1.650000e-01
     vertex  3.855483e-02  1.552853e-01  1.650000e-01
   endloop
 endfacet
 facet normal  0.000000e+00  0.000000e+00  1.000000e+00
   outer loop
     vertex  1.118787e-01  1.143817e-01  1.650000e-01
     vertex  3.855483e-02  1.552853e-01  1.650000e-01
     vertex  2.467983e-02  1.580851e-01  1.650000e-01
   endloop
 endfacet
 facet normal  0.000000e+00  0.000000e+00  1.000000e+00
   outer loop
     vertex  1.118787e-01  1.143817e-01  1.650000e-01
     vertex  2.467983e-02  1.580851e-01  1.650000e-01
     vertex  1.061167e-02  1.596477e-01  1.650000e-01
   endloop
 endfacet
 facet normal  0.000000e+00  0.000000e+00  1.000000e+00
   outer loop
     vertex  1.118787e-01  1.143817e-01  1.650000e-01
     vertex  1.061167e-02  1.596477e-01  1.650000e-01
     vertex -3.539534e-03  1.599608e-01  1.650000e-01
   endloop
 endfacet
 facet normal  0.000000e+00  0.000000e+00  1.000000e+00
   outer loop
     vertex  1.118787e-01  1.143817e-01  1.650000e-01
     vertex -3.539534e-03  1.599608e-01  1.650000e-01
     vertex -1.766304e-02  1.590221e-01  1.650000e-01
   endloop
 endfacet
 facet normal  0.000000e+00  0.000000e+00  1.000000e+00
   outer loop
     vertex  1.118787e-01  1.143817e-01  1.650000e-01
     vertex -1.766304e-02  1.590221e-01  1.650000e-01
     vertex -3.164831e-02  1.568387e-01  1.650000e-01
   endloop
 endfacet
 facet normal  0.000000e+00  0.000000e+00  1.000000e+00
   outer loop
     vertex  1.118787e-01  1.143817e-01  1.650000e-01
     vertex -3.164831e-02  1.568387e-01  1.650000e-01
     vertex -4.538588e-02  1.534279e-01  1.650000e-01
   endloop
 endfacet
 facet normal  0.000000e+00  0.000000e+00  1.000000e+00
   outer loop
     vertex  1.118787e-01  1.143817e-01  1.650000e-01
     vertex -4.538588e-02  1.534279e-01  1.650000e-01
     vertex -5.876826e-02  1.488163e-01  1.650000e-01
   endloop
 endfacet
 facet normal  0.000000e+00  0.000000e+00  1.000000e+00
   outer loop
     vertex  1.118787e-01  1.143817e-01  1.650000e-01
     vertex -5.876826e-02  1.488163e-01  1.650000e-01
     vertex -7.169069e-02  1.430400e-01  1.650000e-01
   endloop
 endfacet
 facet normal  0.000000e+00  0.000000e+00  1.000000e+00
   outer loop
     vertex  1.118787e-01  1.143817e-01  1.650000e-01
     vertex -7.169069e-02  1.430400e-01  1.650000e-01
     vertex -8.405204e-02  1.361442e-01  1.650000e-01
   endloop
 endfacet
 facet normal  0.000000e+00  0.000000e+00  1.000000e+00
   outer loop
     vertex  1.118787e-01  1.143817e-01  1.650000e-01
     vertex -8.405204e-02  1.361442e-01  1.650000e-01
     vertex -9.575557e-02  1.281830e-01  1.650000e-01
   endloop
 endfacet
 facet normal  0.000000e+00  0.000000e+00  1.000000e+00
   outer loop
     vertex  1.118787e-01  1.143817e-01  1.650000e-01
     vertex -9.575557e-02  1.281830e-01  1.650000e-01
     vertex -1.067097e-01  1.192185e-01  1.650000e-01
   endloop
 endfacet
 facet normal  0.000000e+00  0.000000e+00  1.000000e+00
   outer loop
     vertex  1.118787e-01  1.143817e-01  1.650000e-01
     vertex -1.067097e-01  1.192185e-01  1.650000e-01
     vertex -1.168287e-01  1.093209e-01  1.650000e-01
   endloop
 endfacet
 facet normal  0.000000e+00  0.000000e+00  1.000000e+00
   outer loop
     vertex  1.118787e-01  1.143817e-01  1.650000e-01
     vertex -1.168287e-01  1.093209e-01  1.650000e-01
     vertex -1.260333e-01  9.856781e-02  1.650000e-01
   endloop
 endfacet
 facet normal  0.000000e+00  0.000000e+00  1.000000e+00
   outer loop
     vertex  1.118787e-01  1.143817e-01  1.650000e-01
     vertex -1.260333e-01  9.856781e-02  1.650000e-01
     vertex -1.342515e-01  8.704326e-02  1.650000e-01
   endloop
 endfacet
 facet normal  0.000000e+00  0.000000e+00  1.000000e+00
   outer loop
     vertex  1.118787e-01  1.143817e-01  1.650000e-01
     vertex -1.342515e-01  8.704326e-02  1.650000e-01
     vertex -1.414191e-01  7.483748e-02  1.650000e-01
   endloop
 endfacet
 facet normal  0.000000e+00  0.000000e+00  1.000000e+00
   outer loop
     vertex  1.118787e-01  1.143817e-01  1.650000e-01
     vertex -1.414191e-01  7.483748e-02  1.650000e-01
     vertex -1.474798e-01  6.204600e-02  1.650000e-01
   endloop
 endfacet
 facet normal  0.000000e+00  0.000000e+00  1.000000e+00
   outer loop
     vertex  1.118787e-01  1.143817e-01  1.650000e-01
     vertex -1.474798e-01  6.204600e-02  1.650000e-01
     vertex -1.523863e-01  4.876892e-02  1.650000e-01
   endloop
 endfacet
 facet normal  0.000000e+00  0.000000e+00  1.000000e+00
   outer loop
     vertex  1.118787e-01  1.143817e-01  1.650000e-01
     vertex -1.523863e-01  4.876892e-02  1.650000e-01
     vertex -1.561002e-01  3.511016e-02  1.650000e-01
   endloop
 endfacet
 facet normal  0.000000e+00  0.000000e+00  1.000000e+00
   outer loop
     vertex  1.118787e-01  1.143817e-01  1.650000e-01
     vertex -1.561002e-01  3.511016e-02  1.650000e-01
     vertex -1.585924e-01  2.117662e-02  1.650000e-01
   endloop
 endfacet
 facet normal  0.000000e+00  0.000000e+00  1.000000e+00
   outer loop
     vertex  1.118787e-01  1.143817e-01  1.650000e-01
     vertex -1.585924e-01  2.117662e-02  1.650000e-01
     vertex -1.598434e-01  7.077335e-03  1.650000e-01
   endloop
 endfacet
 facet normal  0.000000e+00  0.000000e+00  1.000000e+00
   outer loop
     vertex  1.118787e-01  1.143817e-01  1.650000e-01
     vertex -1.598434e-01  7.077335e-03  1.650000e-01
     vertex -1.598434e-01 -7.077335e-03  1.650000e-01
   endloop
 endfacet
 facet normal  0.000000e+00  0.000000e+00  1.000000e+00
   outer loop
     vertex  1.118787e-01  1.143817e-01  1.650000e-01
     vertex -1.598434e-01 -7.077335e-03  1.650000e-01
     vertex -1.585924e-01 -2.117662e-02  1.650000e-01
   endloop
 endfacet
 facet normal  0.000000e+00  0.000000e+00  1.000000e+00
   outer loop
     vertex  1.118787e-01  1.143817e-01  1.650000e-01
     vertex -1.585924e-01 -2.117662e-02  1.650000e-01
     vertex -1.561002e-01 -3.511016e-02  1.650000e-01
   endloop
 endfacet
 facet normal  0.000000e+00  0.000000e+00  1.000000e+00
   outer loop
     vertex  1.118787e-01  1.143817e-01  1.650000e-01
     vertex -1.561002e-01 -3.511016e-02  1.650000e-01
     vertex -1.523863e-01 -4.876892e-02  1.650000e-01
   endloop
 endfacet
 facet normal  0.000000e+00  0.000000e+00  1.000000e+00
   outer loop
     vertex  1.118787e-01  1.143817e-01  1.650000e-01
     vertex -1.523863e-01 -4.876892e-02  1.650000e-01
     vertex -1.474798e-01 -6.204600e-02  1.650000e-01
   endloop
 endfacet
 facet normal  0.000000e+00  0.000000e+00  1.000000e+00
   outer loop
     vertex  1.118787e-01  1.143817e-01  1.650000e-01
     vertex -1.474798e-01 -6.204600e-02  1.650000e-01
     vertex -1.414191e-01 -7.483748e-02  1.650000e-01
   endloop
 endfacet
 facet normal  0.000000e+00  0.000000e+00  1.000000e+00
   outer loop
     vertex  1.118787e-01  1.143817e-01  1.650000e-01
     vertex -1.414191e-01 -7.483748e-02  1.650000e-01
     vertex -1.342515e-01 -8.704326e-02  1.650000e-01
   endloop
 endfacet
 facet normal  0.000000e+00  0.000000e+00  1.000000e+00
   outer loop
     vertex  1.118787e-01  1.143817e-01  1.650000e-01
     vertex -1.342515e-01 -8.704326e-02  1.650000e-01
     vertex -1.260333e-01 -9.856781e-02  1.650000e-01
   endloop
 endfacet
 facet normal  0.000000e+00  0.000000e+00  1.000000e+00
   outer loop
     vertex  1.118787e-01  1.143817e-01  1.650000e-01
     vertex -1.260333e-01 -9.856781e-02  1.650000e-01
     vertex -1.168287e-01 -1.093209e-01  1.650000e-01
   endloop
 endfacet
 facet normal  0.000000e+00  0.000000e+00  1.000000e+00
   outer loop
     vertex  1.118787e-01  1.143817e-01  1.650000e-01
     vertex -1.168287e-01 -1.093209e-01  1.650000e-01
     vertex -1.067097e-01 -1.192185e-01  1.650000e-01
   endloop
 endfacet
 facet normal  0.000000e+00  0.000000e+00  1.000000e+00
   outer loop
     vertex  1.118787e-01  1.143817e-01  1.650000e-01
     vertex -1.067097e-01 -1.192185e-01  1.650000e-01
     vertex -9.575557e-02 -1.281830e-01  1.650000e-01
   endloop
 endfacet
 facet normal  0.000000e+00  0.000000e+00  1.000000e+00
   outer loop
     vertex  1.118787e-01  1.143817e-01  1.650000e-01
     vertex -9.575557e-02 -1.281830e-01  1.650000e-01
     vertex -8.405204e-02 -1.361442e-01  1.650000e-01
   endloop
 endfacet
 facet normal  0.000000e+00  0.000000e+00  1.000000e+00
   outer loop
     vertex  1.118787e-01  1.143817e-01  1.650000e-01
     vertex -8.405204e-02 -1.361442e-01  1.650000e-01
     vertex -7.169069e-02 -1.430400e-01  1.650000e-01
   endloop
 endfacet
 facet normal  0.000000e+00  0.000000e+00  1.000000e+00
   outer loop
     vertex  1.118787e-01  1.143817e-01  1.650000e-01
     vertex -7.169069e-02 -1.430400e-01  1.650000e-01
     vertex -5.876826e-02 -1.488163e-01  1.650000e-01
   endloop
 endfacet
 facet normal  0.000000e+00  0.000000e+00  1.000000e+00
   outer loop
     vertex  1.118787e-01  1.143817e-01  1.650000e-01
     vertex -5.876826e-02 -1.488163e-01  1.650000e-01
     vertex -4.538588e-02 -1.534279e-01  1.650000e-01
   endloop
 endfacet
 facet normal  0.000000e+00  0.000000e+00  1.000000e+00
   outer loop
     vertex  1.118787e-01  1.143817e-01  1.650000e-01
     vertex -4.538588e-02 -1.534279e-01  1.650000e-01
     vertex -3.164831e-02 -1.568387e-01  1.650000e-01
   endloop
 endfacet
 facet normal  0.000000e+00  0.000000e+00  1.000000e+00
   outer loop
     vertex  1.118787e-01  1.143817e-01  1.650000e-01
     vertex -3.164831e-02 -1.568387e-01  1.650000e-01
     vertex -1.766304e-02 -1.590221e-01  1.650000e-01
   endloop
 endfacet
 facet normal  0.000000e+00  0.000000e+00  1.000000e+00
   outer loop
     vertex  1.118787e-01  1.143817e-01  1.650000e-01
     vertex -1.766304e-02 -1.590221e-01  1.650000e-01
     vertex -3.539534e-03 -1.599608e-01  1.650000e-01
   endloop
 endfacet
 facet normal  0.000000e+00  0.000000e+00  1.000000e+00
   outer loop
     vertex  1.118787e-01  1.143817e-01  1.650000e-01
     vertex -3.539534e-03 -1.599608e-01  1.650000e-01
     vertex  1.061167e-02 -1.596477e-01  1.650000e-01
   endloop
 endfacet
 facet normal  0.000000e+00  0.000000e+00  1.000000e+00
   outer loop
     vertex  1.118787e-01  1.143817e-01  1.650000e-01
     vertex  1.061167e-02 -1.596477e-01  1.650000e-01
     vertex  2.467983e-02 -1.580851e-01  1.650000e-01
   endloop
 endfacet
 facet normal  0.000000e+00  0.000000e+00  1.000000e+00
   outer loop
     vertex  1.118787e-01  1.143817e-01  1.650000e-01
     vertex  2.467983e-02 -1.580851e-01  1.650000e-01
     vertex  3.855483e-02 -1.552853e-01  1.650000e-01
   endloop
 endfacet
 facet normal  0.000000e+00  0.000000e+00  1.000000e+00
   outer loop
     vertex  1.118787e-01  1.143817e-01  1.650000e-01
     vertex  3.855483e-02 -1.552853e-01  1.650000e-01
     vertex  5.212809e-02 -1.512702e-01  1.650000e-01
   endloop
 endfacet
 facet normal  0.000000e+00  0.000000e+00  1.000000e+00
   outer loop
     vertex  1.118787e-01  1.143817e-01  1.650000e-01
     vertex  5.212809e-02 -1.512702e-01  1.650000e-01
     vertex  6.529338e-02 -1.460711e-01  1.650000e-01
   endloop
 endfacet
 facet normal  0.000000e+00  0.000000e+00  1.000000e+00
   outer loop
     vertex  1.118787e-01  1.143817e-01  1.650000e-01
     vertex  6.529338e-02 -1.460711e-01  1.650000e-01
     vertex  7.794766e-02 -1.397289e-01  1.650000e-01
   endloop
 endfacet
 facet normal  0.000000e+00  0.000000e+00  1.000000e+00
   outer loop
     vertex  1.118787e-01  1.143817e-01  1.650000e-01
     vertex  7.794766e-02 -1.397289e-01  1.650000e-01
     vertex  8.999189e-02 -1.322931e-01  1.650000e-01
   endloop
 endfacet
 facet normal  0.000000e+00  0.000000e+00  1.000000e+00
   outer loop
     vertex  1.118787e-01  1.143817e-01  1.650000e-01
     vertex  8.999189e-02 -1.322931e-01  1.650000e-01
     vertex  1.013318e-01 -1.238219e-01  1.650000e-01
   endloop
 endfacet
 facet normal  0.000000e+00  0.000000e+00  1.000000e+00
   outer loop
     vertex  1.118787e-01  1.143817e-01  1.650000e-01
     vertex  1.013318e-01 -1.238219e-01  1.650000e-01
     vertex  1.118787e-01 -1.143817e-01  1.650000e-01
   endloop
 endfacet
 facet normal  0.000000e+00  0.000000e+00  1.000000e+00
   outer loop
     vertex  1.118787e-01  1.143817e-01  1.650000e-01
     vertex  1.118787e-01 -1.143817e-01  1.650000e-01
     vertex  1.215499e-01 -1.040462e-01  1.650000e-01
   endloop
 endfacet
 facet normal  0.000000e+00  0.000000e+00  1.000000e+00
   outer loop
     vertex  1.118787e-01  1.143817e-01  1.650000e-01
     vertex  1.215499e-01 -1.040462e-01  1.650000e-01
     vertex  1.302699e-01 -9.289646e-02  1.650000e-01
   endloop
 endfacet
 facet normal  0.000000e+00  0.000000e+00  1.000000e+00
   outer loop
     vertex  1.118787e-01  1.143817e-01  1.650000e-01
     vertex  1.302699e-01 -9.289646e-02  1.650000e-01
     vertex  1.379703e-01 -8.101967e-02  1.650000e-01
   endloop
 endfacet
 facet normal  0.000000e+00  0.000000e+00  1.000000e+00
   outer loop
     vertex  1.118787e-01  1.143817e-01  1.650000e-01
     vertex  1.379703e-01 -8.101967e-02  1.650000e-01
     vertex  1.445910e-01 -6.850880e-02  1.650000e-01
   endloop
 endfacet
 facet normal  0.000000e+00  0.000000e+00  1.000000e+00
   outer loop
     vertex  1.118787e-01  1.143817e-01  1.650000e-01
     vertex  1.445910e-01 -6.850880e-02  1.650000e-01
     vertex  1.500800e-01 -5.546175e-02  1.650000e-01
   endloop
 endfacet
 facet normal  0.000000e+00  0.000000e+00  1.000000e+00
   outer loop
     vertex  1.118787e-01  1.143817e-01  1.650000e-01
     vertex  1.500800e-01 -5.546175e-02  1.650000e-01
     vertex  1.543944e-01 -4.198063e-02  1.650000e-01
   endloop
 endfacet
 facet normal  0.000000e+00  0.000000e+00  1.000000e+00
   outer loop
     vertex  1.118787e-01  1.143817e-01  1.650000e-01
     vertex  1.543944e-01 -4.198063e-02  1.650000e-01
     vertex  1.575005e-01 -2.817096e-02  1.650000e-01
   endloop
 endfacet
 facet normal  0.000000e+00  0.000000e+00  1.000000e+00
   outer loop
     vertex  1.118787e-01  1.143817e-01  1.650000e-01
     vertex  1.575005e-01 -2.817096e-02  1.650000e-01
     vertex  1.593739e-01 -1.414082e-02  1.650000e-01
   endloop
 endfacet
 facet normal  0.000000e+00  0.000000e+00  1.000000e+00
   outer loop
     vertex  1.118787e-01  1.143817e-01  1.650000e-01
     vertex  1.593739e-01 -1.414082e-02  1.650000e-01
     vertex  1.600000e-01 -3.918870e-17  1.650000e-01
   endloop
 endfacet
 facet normal  0.000000e+00  0.000000e+00 -1.000000e+00
   outer loop
     vertex  1.118787e-01  1.143817e-01 -5.000000e-03
     vertex  1.593739e-01  1.414082e-02 -5.000000e-03
     vertex  1.600000e-01 -3.918870e-17 -5.000000e-03
   endloop
 endfacet
 facet normal  0.000000e+00  0.000000e+00 -1.000000e+00
   outer loop
     vertex  1.118787e-01  1.143817e-01 -5.000000e-03
     vertex  1.575005e-01  2.817096e-02 -5.000000e-03
     vertex  1.593739e-01  1.414082e-02 -5.000000e-03
   endloop
 endfacet
 facet normal  0.000000e+00  0.000000e+00 -1.000000e+00
   outer loop
     vertex  1.118787e-01  1.143817e-01 -5.000000e-03
     vertex  1.543944e-01  4.198063e-02 -5.000000e-03
     vertex  1.575005e-01  2.817096e-02 -5.000000e-03
   endloop
 endfacet
 facet normal  0.000000e+00  0.000000e+00 -1.000000e+00
   outer loop
     vertex  1.118787e-01  1.143817e-01 -5.000000e-03
     vertex  1.500800e-01  5.546175e-02 -5.000000e-03
     vertex  1.543944e-01  4.198063e-02 -5.000000e-03
   endloop
 endfacet
 facet normal  0.000000e+00  0.000000e+00 -1.000000e+00
   outer loop
     vertex  1.118787e-01  1.143817e-01 -5.000000e-03
     vertex  1.445910e-01  6.850880e-02 -5.000000e-03
     vertex  1.500800e-01  5.546175e-02 -5.000000e-03
   endloop
 endfacet
 facet normal  0.000000e+00  0.000000e+00 -1.000000e+00
   outer loop
     vertex  1.118787e-01  1.143817e-01 -5.000000e-03
     vertex  1.379703e-01  8.101967e-02 -5.000000e-03
     vertex  1.445910e-01  6.850880e-02 -5.000000e-03
   endloop
 endfacet
 facet normal  0.000000e+00  0.000000e+00 -1.000000e+00
   outer loop
     vertex  1.118787e-01  1.143817e-01 -5.000000e-03
     vertex  1.302699e-01  9.289646e-02 -5.000000e-03
     vertex  1.379703e-01  8.101967e-02 -5.000000e-03
   endloop
 endfacet
 facet normal  0.000000e+00  0.000000e+00 -1.000000e+00
   outer loop
     vertex  1.118787e-01  1.143817e-01 -5.000000e-03
     vertex  1.215499e-01  1.040462e-01 -5.000000e-03
     vertex  1.302699e-01  9.289646e-02 -5.000000e-03
   endloop
 endfacet
 facet normal  0.000000e+00  0.000000e+00 -1.000000e+00
   outer loop
     vertex  1.118787e-01  1.143817e-01 -5.000000e-03
     vertex  8.999189e-02  1.322931e-01 -5.000000e-03
     vertex  1.013318e-01  1.238219e-01 -5.000000e-03
   endloop
 endfacet
 facet normal  0.000000e+00  0.000000e+00 -1.000000e+00
   outer loop
     vertex  1.118787e-01  1.143817e-01 -5.000000e-03
     vertex  7.794766e-02  1.397289e-01 -5.000000e-03
     vertex  8.999189e-02  1.322931e-01 -5.000000e-03
   endloop
 endfacet
 facet normal  0.000000e+00  0.000000e+00 -1.000000e+00
   outer loop
     vertex  1.118787e-01  1.143817e-01 -5.000000e-03
     vertex  6.529338e-02  1.460711e-01 -5.000000e-03
     vertex  7.794766e-02  1.397289e-01 -5.000000e-03
   endloop
 endfacet
 facet normal  0.000000e+00  0.000000e+00 -1.000000e+00
   outer loop
     vertex  1.118787e-01  1.143817e-01 -5.000000e-03
     vertex  5.212809e-02  1.512702e-01 -5.000000e-03
     vertex  6.529338e-02  1.460711e-01 -5.000000e-03
   endloop
 endfacet
 facet normal  0.000000e+00  0.000000e+00 -1.000000e+00
   outer loop
     vertex  1.118787e-01  1.143817e-01 -5.000000e-03
     vertex  3.855483e-02  1.552853e-01 -5.000000e-03
     vertex  5.212809e-02  1.512702e-01 -5.000000e-03
   endloop
 endfacet
 facet normal  0.000000e+00  0.000000e+00 -1.000000e+00
   outer loop
     vertex  1.118787e-01  1.143817e-01 -5.000000e-03
     vertex  2.467983e-02  1.580851e-01 -5.000000e-03
     vertex  3.855483e-02  1.552853e-01 -5.000000e-03
   endloop
 endfacet
 facet normal  0.000000e+00  0.000000e+00 -1.000000e+00
   outer loop
     vertex  1.118787e-01  1.143817e-01 -5.000000e-03
     vertex  1.061167e-02  1.596477e-01 -5.000000e-03
     vertex  2.467983e-02  1.580851e-01 -5.000000e-03
   endloop
 endfacet
 facet normal  0.000000e+00  0.000000e+00 -1.000000e+00
   outer loop
     vertex  1.118787e-01  1.143817e-01 -5.000000e-03
     vertex -3.539534e-03  1.599608e-01 -5.000000e-03
     vertex  1.061167e-02  1.596477e-01 -5.000000e-03
   endloop
 endfacet
 facet normal  0.000000e+00  0.000000e+00 -1.000000e+00
   outer loop
     vertex  1.118787e-01  1.143817e-01 -5.000000e-03
     vertex -1.766304e-02  1.590221e-01 -5.000000e-03
     vertex -3.539534e-03  1.599608e-01 -5.000000e-03
   endloop
 endfacet
 facet normal  0.000000e+00  0.000000e+00 -1.000000e+00
   outer loop
     vertex  1.118787e-01  1.143817e-01 -5.000000e-03
     vertex -3.164831e-02  1.568387e-01 -5.000000e-03
     vertex -1.766304e-02  1.590221e-01 -5.000000e-03
   endloop
 endfacet
 facet normal  0.000000e+00  0.000000e+00 -1.000000e+00
   outer loop
     vertex  1.118787e-01  1.143817e-01 -5.000000e-03
     vertex -4.538588e-02  1.534279e-01 -5.000000e-03
     vertex -3.164831e-02  1.568387e-01 -5.000000e-03
   endloop
 endfacet
 facet normal  0.000000e+00  0.000000e+00 -1.000000e+00
   outer loop
     vertex  1.118787e-01  1.143817e-01 -5.000000e-03
     vertex -5.876826e-02  1.488163e-01 -5.000000e-03
     vertex -4.538588e-02  1.534279e-01 -5.000000e-03
   endloop
 endfacet
 facet normal  0.000000e+00  0.000000e+00 -1.000000e+00
   outer loop
     vertex  1.118787e-01  1.143817e-01 -5.000000e-03
     vertex -7.169069e-02  1.430400e-01 -5.000000e-03
     vertex -5.876826e-02  1.488163e-01 -5.000000e-03
   endloop
 endfacet
 facet normal  0.000000e+00  0.000000e+00 -1.000000e+00
   outer loop
     vertex  1.118787e-01  1.143817e-01 -5.000000e-03
     vertex -8.405204e-02  1.361442e-01 -5.000000e-03
     vertex -7.169069e-02  1.430400e-01 -5.000000e-03
   endloop
 endfacet
 facet normal  0.000000e+00  0.000000e+00 -1.000000e+00
   outer loop
     vertex  1.118787e-01  1.143817e-01 -5.000000e-03
     vertex -9.575557e-02  1.281830e-01 -5.000000e-03
     vertex -8.405204e-02  1.361442e-01 -5.000000e-03
   endloop
 endfacet
 facet normal  0.000000e+00  0.000000e+00 -1.000000e+00
   outer loop
     vertex  1.118787e-01  1.143817e-01 -5.000000e-03
     vertex -1.067097e-01  1.192185e-01 -5.000000e-03
     vertex -9.575557e-02  1.281830e-01 -5.000000e-03
   endloop
 endfacet
 facet normal -0.000000e+00  0.000000e+00 -1.000000e+00
   outer loop
     vertex  1.118787e-01  1.143817e-01 -5.000000e-03
     vertex -1.168287e-01  1.093209e-01 -5.000000e-03
     vertex -1.067097e-01  1.192185e-01 -5.000000e-03
   endloop
 endfacet
 facet normal  0.000000e+00  0.000000e+00 -1.000000e+00
   outer loop
     vertex  1.118787e-01  1.143817e-01 -5.000000e-03
     vertex -1.260333e-01  9.856781e-02 -5.000000e-03
     vertex -1.168287e-01  1.093209e-01 -5.000000e-03
   endloop
 endfacet
 facet normal  0.000000e+00  0.000000e+00 -1.000000e+00
   outer loop
     vertex  1.118787e-01  1.143817e-01 -5.000000e-03
     vertex -1.342515e-01  8.704326e-02 -5.000000e-03
     vertex -1.260333e-01  9.856781e-02 -5.000000e-03
   endloop
 endfacet
 facet normal  0.000000e+00  0.000000e+00 -1.000000e+00
   outer loop
     vertex  1.118787e-01  1.143817e-01 -5.000000e-03
     vertex -1.414191e-01  7.483748e-02 -5.000000e-03
     vertex -1.342515e-01  8.704326e-02 -5.000000e-03
   endloop
 endfacet
 facet normal  0.000000e+00  0.000000e+00 -1.000000e+00
   outer loop
     vertex  1.118787e-01  1.143817e-01 -5.000000e-03
     vertex -1.474798e-01  6.204600e-02 -5.000000e-03
     vertex -1.414191e-01  7.483748e-02 -5.000000e-03
   endloop
 endfacet
 facet normal  0.000000e+00  0.000000e+00 -1.000000e+00
   outer loop
     vertex  1.118787e-01  1.143817e-01 -5.000000e-03
     vertex -1.523863e-01  4.876892e-02 -5.000000e-03
     vertex -1.474798e-01  6.204600e-02 -5.000000e-03
   endloop
 endfacet
 facet normal  0.000000e+00  0.000000e+00 -1.000000e+00
   outer loop
     vertex  1.118787e-01  1.143817e-01 -5.000000e-03
     vertex -1.561002e-01  3.511016e-02 -5.000000e-03
     vertex -1.523863e-01  4.876892e-02 -5.000000e-03
   endloop
 endfacet
 facet normal  0.000000e+00  0.000000e+00 -1.000000e+00
   outer loop
     vertex  1.118787e-01  1.143817e-01 -5.000000e-03
     vertex -1.585924e-01  2.117662e-02 -5.000000e-03
     vertex -1.561002e-01  3.511016e-02 -5.000000e-03
   endloop
 endfacet
 facet normal  0.000000e+00  0.000000e+00 -1.000000e+00
   outer loop
     vertex  1.118787e-01  1.143817e-01 -5.000000e-03
     vertex -1.598434e-01  7.077335e-03 -5.000000e-03
     vertex -1.585924e-01  2.117662e-02 -5.000000e-03
   endloop
 endfacet
 facet normal  0.000000e+00  0.000000e+00 -1.000000e+00
   outer loop
     vertex  1.118787e-01  1.143817e-01 -5.000000e-03
     vertex -1.598434e-01 -7.077335e-03 -5.000000e-03
     vertex -1.598434e-01  7.077335e-03 -5.000000e-03
   endloop
 endfacet
 facet normal  0.000000e+00  0.000000e+00 -1.000000e+00
   outer loop
     vertex  1.118787e-01  1.143817e-01 -5.000000e-03
     vertex -1.585924e-01 -2.117662e-02 -5.000000e-03
     vertex -1.598434e-01 -7.077335e-03 -5.000000e-03
   endloop
 endfacet
 facet normal  0.000000e+00  0.000000e+00 -1.000000e+00
   outer loop
     vertex  1.118787e-01  1.143817e-01 -5.000000e-03
     vertex -1.561002e-01 -3.511016e-02 -5.000000e-03
     vertex -1.585924e-01 -2.117662e-02 -5.000000e-03
   endloop
 endfacet
 facet normal  0.000000e+00  0.000000e+00 -1.000000e+00
   outer loop
     vertex  1.118787e-01  1.143817e-01 -5.000000e-03
     vertex -1.523863e-01 -4.876892e-02 -5.000000e-03
     vertex -1.561002e-01 -3.511016e-02 -5.000000e-03
   endloop
 endfacet
 facet normal  0.000000e+00  0.000000e+00 -1.000000e+00
   outer loop
     vertex  1.118787e-01  1.143817e-01 -5.000000e-03
     vertex -1.474798e-01 -6.204600e-02 -5.000000e-03
     vertex -1.523863e-01 -4.876892e-02 -5.000000e-03
   endloop
 endfacet
 facet normal  0.000000e+00  0.000000e+00 -1.000000e+00
   outer loop
     vertex  1.118787e-01  1.143817e-01 -5.000000e-03
     vertex -1.414191e-01 -7.483748e-02 -5.000000e-03
     vertex -1.474798e-01 -6.204600e-02 -5.000000e-03
   endloop
 endfacet
 facet normal  0.000000e+00  0.000000e+00 -1.000000e+00
   outer loop
     vertex  1.118787e-01  1.143817e-01 -5.000000e-03
     vertex -1.342515e-01 -8.704326e-02 -5.000000e-03
     vertex -1.414191e-01 -7.483748e-02 -5.000000e-03
   endloop
 endfacet
 facet normal  0.000000e+00  0.000000e+00 -1.000000e+00
   outer loop
     vertex  1.118787e-01  1.143817e-01 -5.000000e-03
     vertex -1.260333e-01 -9.856781e-02 -5.000000e-03
     vertex -1.342515e-01 -8.704326e-02 -5.000000e-03
   endloop
 endfacet
 facet normal  0.000000e+00  0.000000e+00 -1.000000e+00
   outer loop
     vertex  1.118787e-01  1.143817e-01 -5.000000e-03
     vertex -1.168287e-01 -1.093209e-01 -5.000000e-03
     vertex -1.260333e-01 -9.856781e-02 -5.000000e-03
   endloop
 endfacet
 facet normal  0.000000e+00  0.000000e+00 -1.000000e+00
   outer loop
     vertex  1.118787e-01  1.143817e-01 -5.000000e-03
     vertex -1.067097e-01 -1.192185e-01 -5.000000e-03
     vertex -1.168287e-01 -1.093209e-01 -5.000000e-03
   endloop
 endfacet
 facet normal  0.000000e+00  0.000000e+00 -1.000000e+00
   outer loop
     vertex  1.118787e-01  1.143817e-01 -5.000000e-03
     vertex -9.575557e-02 -1.281830e-01 -5.000000e-03
     vertex -1.067097e-01 -1.192185e-01 -5.000000e-03
   endloop
 endfacet
 facet normal  0.000000e+00  0.000000e+00 -1.000000e+00
   outer loop
     vertex  1.118787e-01  1.143817e-01 -5.000000e-03
     vertex -8.405204e-02 -1.361442e-01 -5.000000e-03
     vertex -9.575557e-02 -1.281830e-01 -5.000000e-03
   endloop
 endfacet
 facet normal  0.000000e+00  0.000000e+00 -1.000000e+00
   outer loop
     vertex  1.118787e-01  1.143817e-01 -5.000000e-03
     vertex -7.169069e-02 -1.430400e-01 -5.000000e-03
     vertex -8.405204e-02 -1.361442e-01 -5.000000e-03
   endloop
 endfacet
 facet normal  0.000000e+00  0.000000e+00 -1.000000e+00
   outer loop
     vertex  1.118787e-01  1.143817e-01 -5.000000e-03
     vertex -5.876826e-02 -1.488163e-01 -5.000000e-03
     vertex -7.169069e-02 -1.430400e-01 -5.000000e-03
   endloop
 endfacet
 facet normal  0.000000e+00  0.000000e+00 -1.000000e+00
   outer loop
     vertex  1.118787e-01  1.143817e-01 -5.000000e-03
     vertex -4.538588e-02 -1.534279e-01 -5.000000e-03
     vertex -5.876826e-02 -1.488163e-01 -5.000000e-03
   endloop
 endfacet
 facet normal  0.000000e+00  0.000000e+00 -1.000000e+00
   outer loop
     vertex  1.118787e-01  1.143817e-01 -5.000000e-03
     vertex -3.164831e-02 -1.568387e-01 -5.000000e-03
     vertex -4.538588e-02 -1.534279e-01 -5.000000e-03
   endloop
 endfacet
 facet normal  0.000000e+00  0.000000e+00 -1.000000e+00
   outer loop
     vertex  1.118787e-01  1.143817e-01 -5.000000e-03
     vertex -1.766304e-02 -1.590221e-01 -5.000000e-03
     vertex -3.164831e-02 -1.568387e-01 -5.000000e-03
   endloop
 endfacet
 facet normal  0.000000e+00  0.000000e+00 -1.000000e+00
   outer loop
     vertex  1.118787e-01  1.143817e-01 -5.000000e-03
     vertex -3.539534e-03 -1.599608e-01 -5.000000e-03
     vertex -1.766304e-02 -1.590221e-01 -5.000000e-03
   endloop
 endfacet
 facet normal  0.000000e+00  0.000000e+00 -1.000000e+00
   outer loop
     vertex  1.118787e-01  1.143817e-01 -5.000000e-03
     vertex  1.061167e-02 -1.596477e-01 -5.000000e-03
     vertex -3.539534e-03 -1.599608e-01 -5.000000e-03
   endloop
 endfacet
 facet normal  0.000000e+00  0.000000e+00 -1.000000e+00
   outer loop
     vertex  1.118787e-01  1.143817e-01 -5.000000e-03
     vertex  2.467983e-02 -1.580851e-01 -5.000000e-03
     vertex  1.061167e-02 -1.596477e-01 -5.000000e-03
   endloop
 endfacet
 facet normal  0.000000e+00  0.000000e+00 -1.000000e+00
   outer loop
     vertex  1.118787e-01  1.143817e-01 -5.000000e-03
     vertex  3.855483e-02 -1.552853e-01 -5.000000e-03
     vertex  2.467983e-02 -1.580851e-01 -5.000000e-03
   endloop
 endfacet
 facet normal  0.000000e+00  0.000000e+00 -1.000000e+00
   outer loop
     vertex  1.118787e-01  1.143817e-01 -5.000000e-03
     vertex  5.212809e-02 -1.512702e-01 -5.000000e-03
     vertex  3.855483e-02 -1.552853e-01 -5.000000e-03
   endloop
 endfacet
 facet normal  0.000000e+00  0.000000e+00 -1.000000e+00
   outer loop
     vertex  1.118787e-01  1.143817e-01 -5.000000e-03
     vertex  6.529338e-02 -1.460711e-01 -5.000000e-03
     vertex  5.212809e-02 -1.512702e-01 -5.000000e-03
   endloop
 endfacet
 facet normal  0.000000e+00  0.000000e+00 -1.000000e+00
   outer loop
     vertex  1.118787e-01  1.143817e-01 -5.000000e-03
     vertex  7.794766e-02 -1.397289e-01 -5.000000e-03
     vertex  6.529338e-02 -1.460711e-01 -5.000000e-03
   endloop
 endfacet
 facet normal  0.000000e+00  0.000000e+00 -1.000000e+00
   outer loop
     vertex  1.118787e-01  1.143817e-01 -5.000000e-03
     vertex  8.999189e-02 -1.322931e-01 -5.000000e-03
     vertex  7.794766e-02 -1.397289e-01 -5.000000e-03
   endloop
 endfacet
 facet normal  0.000000e+00  0.000000e+00 -1.000000e+00
   outer loop
     vertex  1.118787e-01  1.143817e-01 -5.000000e-03
     vertex  1.013318e-01 -1.238219e-01 -5.000000e-03
     vertex  8.999189e-02 -1.322931e-01 -5.000000e-03
   endloop
 endfacet
 facet normal  0.000000e+00  0.000000e+00 -1.000000e+00
   outer loop
     vertex  1.118787e-01  1.143817e-01 -5.000000e-03
     vertex  1.118787e-01 -1.143817e-01 -5.000000e-03
     vertex  1.013318e-01 -1.238219e-01 -5.000000e-03
   endloop
 endfacet
 facet normal  0.000000e+00 -0.000000e+00 -1.000000e+00
   outer loop
     vertex  1.118787e-01  1.143817e-01 -5.000000e-03
     vertex  1.215499e-01 -1.040462e-01 -5.000000e-03
     vertex  1.118787e-01 -1.143817e-01 -5.000000e-03
   endloop
 endfacet
 facet normal  0.000000e+00  0.000000e+00 -1.000000e+00
   outer loop
     vertex  1.118787e-01  1.143817e-01 -5.000000e-03
     vertex  1.302699e-01 -9.289646e-02 -5.000000e-03
     vertex  1.215499e-01 -1.040462e-01 -5.000000e-03
   endloop
 endfacet
 facet normal  0.000000e+00  0.000000e+00 -1.000000e+00
   outer loop
     vertex  1.118787e-01  1.143817e-01 -5.000000e-03
     vertex  1.379703e-01 -8.101967e-02 -5.000000e-03
     vertex  1.302699e-01 -9.289646e-02 -5.000000e-03
   endloop
 endfacet
 facet normal  0.000000e+00  0.000000e+00 -1.000000e+00
   outer loop
     vertex  1.118787e-01  1.143817e-01 -5.000000e-03
     vertex  1.445910e-01 -6.850880e-02 -5.000000e-03
     vertex  1.379703e-01 -8.101967e-02 -5.000000e-03
   endloop
 endfacet
 facet normal  0.000000e+00  0.000000e+00 -1.000000e+00
   outer loop
     vertex  1.118787e-01  1.143817e-01 -5.000000e-03
     vertex  1.500800e-01 -5.546175e-02 -5.000000e-03
     vertex  1.445910e-01 -6.850880e-02 -5.000000e-03
   endloop
 endfacet
 facet normal  0.000000e+00  0.000000e+00 -1.000000e+00
   outer loop
     vertex  1.118787e-01  1.143817e-01 -5.000000e-03
     vertex  1.543944e-01 -4.198063e-02 -5.000000e-03
     vertex  1.500800e-01 -5.546175e-02 -5.000000e-03
   endloop
 endfacet
 facet normal  0.000000e+00  0.000000e+00 -1.000000e+00
   outer loop
     vertex  1.118787e-01  1.143817e-01 -5.000000e-03
     vertex  1.575005e-01 -2.817096e-02 -5.000000e-03
     vertex  1.543944e-01 -4.198063e-02 -5.000000e-03
   endloop
 endfacet
 facet normal  0.000000e+00  0.000000e+00 -1.000000e+00
   outer loop
     vertex  1.118787e-01  1.143817e-01 -5.000000e-03
     vertex  1.593739e-01 -1.414082e-02 -5.000000e-03
     vertex  1.575005e-01 -2.817096e-02 -5.000000e-03
   endloop
 endfacet
 facet normal  0.000000e+00  0.000000e+00 -1.000000e+00
   outer loop
     vertex  1.118787e-01  1.143817e-01 -5.000000e-03
     vertex  1.600000e-01 -3.918870e-17 -5.000000e-03
     vertex  1.593739e-01 -1.414082e-02 -5.000000e-03
   endloop
 endfacet
endsolid
